<svg class="logo" xmlns="http://www.w3.org/2000/svg" xmlns:xlink="http://www.w3.org/1999/xlink" style="isolation:isolate" viewBox="0 0 60 15" width="60" height="15"><defs><clipPath id="logo"><rect width="60" height="15"/></clipPath></defs><g clip-path="url(#_clipPath_O7edm6ECRkrdwapV7XVy38FpwvYgkY2H)"><path d=" M 54.792 13.676 L 46.188 13.676 L 46.188 1.076 L 54.396 1.076 L 54.396 3.11 L 48.348 3.11 L 48.348 6.152 L 52.074 6.152 L 52.074 8.186 L 48.348 8.186 L 48.348 11.642 L 54.792 11.642 L 54.792 13.676 L 54.792 13.676 Z  M 58.806 13.487 L 58.806 13.487 L 58.806 13.487 Q 58.392 13.892 57.78 13.892 L 57.78 13.892 L 57.78 13.892 Q 57.168 13.892 56.754 13.487 L 56.754 13.487 L 56.754 13.487 Q 56.34 13.082 56.34 12.488 L 56.34 12.488 L 56.34 12.488 Q 56.34 11.894 56.754 11.489 L 56.754 11.489 L 56.754 11.489 Q 57.168 11.084 57.78 11.084 L 57.78 11.084 L 57.78 11.084 Q 58.392 11.084 58.806 11.498 L 58.806 11.498 L 58.806 11.498 Q 59.22 11.912 59.22 12.488 L 59.22 12.488 L 59.22 12.488 Q 59.22 13.082 58.806 13.487 Z  M 3.69 13.676 L 1.53 13.676 L 1.53 1.076 L 9.666 1.076 L 9.666 3.11 L 3.69 3.11 L 3.69 6.152 L 7.506 6.152 L 7.506 8.186 L 3.69 8.186 L 3.69 13.676 L 3.69 13.676 Z  M 13.518 2.849 L 13.518 2.849 L 13.518 2.849 Q 13.158 3.218 12.636 3.218 L 12.636 3.218 L 12.636 3.218 Q 12.114 3.218 11.745 2.849 L 11.745 2.849 L 11.745 2.849 Q 11.376 2.48 11.376 1.958 L 11.376 1.958 L 11.376 1.958 Q 11.376 1.436 11.745 1.076 L 11.745 1.076 L 11.745 1.076 Q 12.114 0.716 12.636 0.716 L 12.636 0.716 L 12.636 0.716 Q 13.158 0.716 13.518 1.076 L 13.518 1.076 L 13.518 1.076 Q 13.878 1.436 13.878 1.958 L 13.878 1.958 L 13.878 1.958 Q 13.878 2.48 13.518 2.849 Z  M 13.68 13.676 L 11.574 13.676 L 11.574 4.478 L 13.68 4.478 L 13.68 13.676 L 13.68 13.676 Z  M 19.764 13.892 L 19.764 13.892 L 19.764 13.892 Q 18 13.892 16.974 12.614 L 16.974 12.614 L 16.974 12.614 Q 15.948 11.336 15.948 9.068 L 15.948 9.068 L 15.948 9.068 Q 15.948 6.854 17.01 5.558 L 17.01 5.558 L 17.01 5.558 Q 18.072 4.262 19.764 4.262 L 19.764 4.262 L 19.764 4.262 Q 21.096 4.262 21.834 5.126 L 21.834 5.126 L 21.834 1.634 L 23.94 0.68 L 23.94 13.676 L 21.834 13.676 L 21.834 13.01 L 21.834 13.01 Q 21.15 13.892 19.764 13.892 Z  M 20.088 11.876 L 20.088 11.876 L 20.088 11.876 Q 21.258 11.876 21.834 10.994 L 21.834 10.994 L 21.834 7.142 L 21.834 7.142 Q 21.24 6.26 20.088 6.26 L 20.088 6.26 L 20.088 6.26 Q 19.116 6.26 18.585 6.989 L 18.585 6.989 L 18.585 6.989 Q 18.054 7.718 18.054 9.068 L 18.054 9.068 L 18.054 9.068 Q 18.054 10.346 18.594 11.111 L 18.594 11.111 L 18.594 11.111 Q 19.134 11.876 20.088 11.876 Z  M 30.438 13.892 L 30.438 13.892 L 30.438 13.892 Q 28.476 13.892 27.333 12.605 L 27.333 12.605 L 27.333 12.605 Q 26.19 11.318 26.19 9.068 L 26.19 9.068 L 26.19 9.068 Q 26.19 6.836 27.342 5.549 L 27.342 5.549 L 27.342 5.549 Q 28.494 4.262 30.438 4.262 L 30.438 4.262 L 30.438 4.262 Q 32.202 4.262 33.327 5.36 L 33.327 5.36 L 33.327 5.36 Q 34.452 6.458 34.452 8.582 L 34.452 8.582 L 34.452 8.582 Q 34.452 9.32 34.38 9.878 L 34.38 9.878 L 28.278 9.878 L 28.278 9.878 Q 28.332 10.85 28.953 11.444 L 28.953 11.444 L 28.953 11.444 Q 29.574 12.038 30.438 12.038 L 30.438 12.038 L 30.438 12.038 Q 31.662 12.038 32.382 11.084 L 32.382 11.084 L 33.714 12.452 L 33.714 12.452 Q 32.508 13.892 30.438 13.892 Z  M 28.296 8.132 L 28.296 8.132 L 32.364 8.132 L 32.364 8.132 Q 32.292 7.142 31.752 6.629 L 31.752 6.629 L 31.752 6.629 Q 31.212 6.116 30.438 6.116 L 30.438 6.116 L 30.438 6.116 Q 29.538 6.116 28.953 6.611 L 28.953 6.611 L 28.953 6.611 Q 28.368 7.106 28.296 8.132 Z  M 38.808 13.676 L 36.702 13.676 L 36.702 1.67 L 38.808 0.68 L 38.808 13.676 L 38.808 13.676 Z " fill-rule="evenodd" fill="rgb(0,0,0)"/></g></svg>