<svg class="logo" xmlns="http://www.w3.org/2000/svg" xmlns:xlink="http://www.w3.org/1999/xlink" style="isolation:isolate" viewBox="0 0 60 15" width="60" height="15"><defs><clipPath id="logo"><rect width="60" height="15"/></clipPath></defs><g clip-path="url(#_clipPath_ldF54k6fZjmRVqWn0fdKq7QQhwOOfrTp)"><path d=" M 53.082 13.676 L 45.198 13.676 L 45.198 1.076 L 52.686 1.076 L 52.686 2.552 L 46.764 2.552 L 46.764 6.422 L 50.67 6.422 L 50.67 7.898 L 46.764 7.898 L 46.764 12.182 L 53.082 12.182 L 53.082 13.676 L 53.082 13.676 Z  M 57.123 13.541 L 57.123 13.541 L 57.123 13.541 Q 56.754 13.91 56.232 13.91 L 56.232 13.91 L 56.232 13.91 Q 55.71 13.91 55.35 13.541 L 55.35 13.541 L 55.35 13.541 Q 54.99 13.172 54.99 12.686 L 54.99 12.686 L 54.99 12.686 Q 54.99 12.182 55.35 11.813 L 55.35 11.813 L 55.35 11.813 Q 55.71 11.444 56.232 11.444 L 56.232 11.444 L 56.232 11.444 Q 56.754 11.444 57.123 11.822 L 57.123 11.822 L 57.123 11.822 Q 57.492 12.2 57.492 12.686 L 57.492 12.686 L 57.492 12.686 Q 57.492 13.172 57.123 13.541 Z  M 3.33 13.676 L 1.764 13.676 L 1.764 1.076 L 9.342 1.076 L 9.342 2.552 L 3.33 2.552 L 3.33 6.422 L 7.308 6.422 L 7.308 7.898 L 3.33 7.898 L 3.33 13.676 L 3.33 13.676 Z  M 13.104 2.525 L 13.104 2.525 L 13.104 2.525 Q 12.816 2.804 12.402 2.804 L 12.402 2.804 L 12.402 2.804 Q 11.988 2.804 11.709 2.516 L 11.709 2.516 L 11.709 2.516 Q 11.43 2.228 11.43 1.832 L 11.43 1.832 L 11.43 1.832 Q 11.43 1.418 11.718 1.121 L 11.718 1.121 L 11.718 1.121 Q 12.006 0.824 12.402 0.824 L 12.402 0.824 L 12.402 0.824 Q 12.816 0.824 13.104 1.121 L 13.104 1.121 L 13.104 1.121 Q 13.392 1.418 13.392 1.832 L 13.392 1.832 L 13.392 1.832 Q 13.392 2.246 13.104 2.525 Z  M 13.194 13.676 L 11.628 13.676 L 11.628 4.478 L 13.194 4.478 L 13.194 13.676 L 13.194 13.676 Z  M 19.44 13.892 L 19.44 13.892 L 19.44 13.892 Q 17.694 13.892 16.668 12.596 L 16.668 12.596 L 16.668 12.596 Q 15.642 11.3 15.642 9.068 L 15.642 9.068 L 15.642 9.068 Q 15.642 6.818 16.677 5.54 L 16.677 5.54 L 16.677 5.54 Q 17.712 4.262 19.44 4.262 L 19.44 4.262 L 19.44 4.262 Q 20.79 4.262 21.762 5.126 L 21.762 5.126 L 21.762 1.418 L 23.328 0.68 L 23.328 13.676 L 21.762 13.676 L 21.762 12.956 L 21.762 12.956 Q 20.862 13.892 19.44 13.892 Z  M 19.656 12.434 L 19.656 12.434 L 19.656 12.434 Q 21.024 12.434 21.762 11.192 L 21.762 11.192 L 21.762 6.872 L 21.762 6.872 Q 21.024 5.702 19.656 5.702 L 19.656 5.702 L 19.656 5.702 Q 18.486 5.702 17.856 6.575 L 17.856 6.575 L 17.856 6.575 Q 17.226 7.448 17.226 9.068 L 17.226 9.068 L 17.226 9.068 Q 17.226 10.526 17.883 11.48 L 17.883 11.48 L 17.883 11.48 Q 18.54 12.434 19.656 12.434 Z  M 29.844 13.892 L 29.844 13.892 L 29.844 13.892 Q 27.972 13.892 26.865 12.551 L 26.865 12.551 L 26.865 12.551 Q 25.758 11.21 25.758 9.068 L 25.758 9.068 L 25.758 9.068 Q 25.758 6.818 26.874 5.54 L 26.874 5.54 L 26.874 5.54 Q 27.99 4.262 29.844 4.262 L 29.844 4.262 L 29.844 4.262 Q 31.5 4.262 32.571 5.369 L 32.571 5.369 L 32.571 5.369 Q 33.642 6.476 33.642 8.636 L 33.642 8.636 L 33.642 8.636 Q 33.642 9.14 33.588 9.68 L 33.588 9.68 L 27.36 9.68 L 27.36 9.68 Q 27.45 10.94 28.143 11.705 L 28.143 11.705 L 28.143 11.705 Q 28.836 12.47 29.88 12.47 L 29.88 12.47 L 29.88 12.47 Q 31.032 12.47 31.86 11.642 L 31.86 11.642 L 32.814 12.704 L 32.814 12.704 Q 31.626 13.892 29.844 13.892 Z  M 27.342 8.348 L 27.342 8.348 L 32.058 8.348 L 32.058 8.348 Q 32.04 6.926 31.383 6.287 L 31.383 6.287 L 31.383 6.287 Q 30.726 5.648 29.844 5.648 L 29.844 5.648 L 29.844 5.648 Q 28.782 5.648 28.098 6.323 L 28.098 6.323 L 28.098 6.323 Q 27.414 6.998 27.342 8.348 Z  M 37.638 13.676 L 36.072 13.676 L 36.072 1.418 L 37.638 0.68 L 37.638 13.676 L 37.638 13.676 Z " fill-rule="evenodd" fill="rgb(0,0,0)"/></g></svg>