<?xml version="1.0" encoding="UTF-8" standalone="no"?>
<!-- Created with Inkscape (http://www.inkscape.org/) -->

<svg
   xmlns:dc="http://purl.org/dc/elements/1.1/"
   xmlns:cc="http://creativecommons.org/ns#"
   xmlns:rdf="http://www.w3.org/1999/02/22-rdf-syntax-ns#"
   xmlns:svg="http://www.w3.org/2000/svg"
   xmlns="http://www.w3.org/2000/svg"
   xmlns:sodipodi="http://sodipodi.sourceforge.net/DTD/sodipodi-0.dtd"
   xmlns:inkscape="http://www.inkscape.org/namespaces/inkscape"
   width="8.6351318mm"
   height="9.08885mm"
   viewBox="0 0 8.6351318 9.08885"
   version="1.1"
   id="svg70"
   inkscape:version="0.92.4 (f8dce91, 2019-08-02)"
   sodipodi:docname="logo2.svg">
  <defs
     id="defs64" />
  <sodipodi:namedview
     id="base"
     pagecolor="#ffffff"
     bordercolor="#666666"
     borderopacity="1.0"
     inkscape:pageopacity="0.0"
     inkscape:pageshadow="2"
     inkscape:zoom="12.284584"
     inkscape:cx="11.044381"
     inkscape:cy="25.089063"
     inkscape:document-units="mm"
     inkscape:current-layer="layer1"
     showgrid="false"
     fit-margin-top="0"
     fit-margin-left="0"
     fit-margin-right="0"
     fit-margin-bottom="0"
     inkscape:window-width="1853"
     inkscape:window-height="1025"
     inkscape:window-x="67"
     inkscape:window-y="27"
     inkscape:window-maximized="1" />
  <metadata
     id="metadata67">
    <rdf:RDF>
      <cc:Work
         rdf:about="">
        <dc:format>image/svg+xml</dc:format>
        <dc:type
           rdf:resource="http://purl.org/dc/dcmitype/StillImage" />
        <dc:title></dc:title>
      </cc:Work>
    </rdf:RDF>
  </metadata>
  <g
     inkscape:label="Layer 1"
     inkscape:groupmode="layer"
     id="layer1"
     transform="translate(-33.084801,-112.56987)">
    <path
       style="font-style:normal;font-variant:normal;font-weight:bold;font-stretch:normal;font-size:4.23333311px;line-height:1;font-family:Ubuntu;-inkscape-font-specification:Ubuntu;text-align:center;letter-spacing:0px;word-spacing:0px;text-anchor:middle;fill:#000000;fill-opacity:1;stroke:none;stroke-width:0.99999994"
       d="m 132.01172,425.46094 c -0.81067,0 -1.56448,0.12876 -2.25781,0.38476 -0.69334,0.256 -1.28969,0.63343 -1.79102,1.13477 -0.50133,0.49066 -0.89559,1.09888 -1.18359,1.82422 -0.288,0.71466 -0.43164,1.53187 -0.43164,2.44922 0,1.84534 0.46758,3.26882 1.40625,4.27148 0.94933,1.00266 2.32623,1.50391 4.1289,1.50391 0.84267,0 1.58461,-0.0853 2.22461,-0.25586 0.64,-0.17059 1.13628,-0.36276 1.48828,-0.57617 l -0.68945,-2 c -0.13868,0.064 -0.29223,0.1344 -0.46289,0.20898 -0.17067,0.0746 -0.3678,0.14303 -0.5918,0.20703 -0.224,0.0534 -0.48153,0.10195 -0.76953,0.14453 -0.288,0.0426 -0.61194,0.0645 -0.97461,0.0645 -0.576,0 -1.06732,-0.092 -1.47265,-0.27344 -0.40534,-0.192 -0.73619,-0.44758 -0.99219,-0.76758 -0.24533,-0.32 -0.42563,-0.69938 -0.54297,-1.13672 -0.10666,-0.448 -0.16016,-0.92745 -0.16016,-1.43945 0,-0.64 0.0852,-1.18286 0.25586,-1.63086 0.17067,-0.448 0.39454,-0.81055 0.67188,-1.08789 0.288,-0.288 0.61389,-0.497 0.97656,-0.625 0.37333,-0.128 0.75077,-0.19141 1.13477,-0.19141 0.576,0 1.0891,0.0634 1.5371,0.19141 0.45867,0.12792 0.85789,0.28342 1.19922,0.46484 l 0.72071,-2.01758 c -0.0853,-0.0534 -0.22402,-0.12665 -0.41602,-0.22265 -0.192,-0.096 -0.4327,-0.18802 -0.7207,-0.27344 -0.288,-0.096 -0.62381,-0.17428 -1.00781,-0.23828 -0.384,-0.0746 -0.80997,-0.11328 -1.2793,-0.11328 z m 8.94726,0 c -0.992,0 -1.7706,0.25558 -2.33593,0.76758 -0.56533,0.50134 -0.84766,1.22149 -0.84766,2.16015 0,0.42669 0.10008,0.82289 0.30273,1.18555 0.20267,0.352 0.43346,0.68089 0.68946,0.99023 -0.288,0.1599 -0.56537,0.34713 -0.83203,0.56055 -0.25601,0.20268 -0.4868,0.44339 -0.68946,0.7207 -0.19199,0.26669 -0.34555,0.5708 -0.46289,0.91211 -0.11734,0.33069 -0.17578,0.6982 -0.17578,1.10352 0,0.36268 0.0634,0.7302 0.19141,1.10351 0.128,0.36269 0.34195,0.69353 0.64062,0.99219 0.30933,0.288 0.71351,0.5287 1.21485,0.7207 0.50133,0.18142 1.12638,0.27149 1.87304,0.27149 0.704,0 1.33897,-0.11194 1.9043,-0.33594 0.56533,-0.23468 1.05966,-0.52196 1.48633,-0.86328 0.14933,0.14924 0.29988,0.32955 0.44922,0.54297 0.14931,0.20276 0.26622,0.37313 0.35156,0.51172 h 2.44727 c -0.23467,-0.45869 -0.51699,-0.91138 -0.84766,-1.35938 -0.32,-0.45866 -0.65086,-0.87967 -0.99219,-1.26367 0.11734,-0.20258 0.22431,-0.42646 0.32031,-0.67187 0.10669,-0.24525 0.19683,-0.49092 0.27149,-0.73633 0.0853,-0.24542 0.15564,-0.48612 0.20898,-0.72071 0.0532,-0.24541 0.0899,-0.46929 0.11133,-0.67187 l -1.98437,-0.25586 c -0.0213,0.24534 -0.0798,0.53262 -0.17579,0.86328 -0.0853,0.31993 -0.17548,0.58737 -0.27148,0.80078 l -1.79102,-1.79101 c 0.56534,-0.34134 1.02796,-0.76429 1.39063,-1.26563 0.37333,-0.512 0.56055,-1.09348 0.56055,-1.74414 0,-0.352 -0.0634,-0.67595 -0.19141,-0.97461 -0.128,-0.30934 -0.32017,-0.57678 -0.57617,-0.80078 -0.24533,-0.23466 -0.5544,-0.41497 -0.92774,-0.54297 -0.37333,-0.13858 -0.81116,-0.20898 -1.3125,-0.20898 z m 7.64844,0.25586 v 11.08789 h 7.85742 v -2.09571 h -5.36132 v -2.67187 h 4.43164 v -2.04688 h -4.43164 v -2.17773 h 4.99218 v -2.0957 z m -7.71289,1.4414 c 0.37333,0 0.64078,0.0951 0.80078,0.28711 0.16,0.1919 0.24024,0.41084 0.24024,0.65625 0,0.42669 -0.1238,0.77241 -0.36914,1.03906 -0.24534,0.26666 -0.53758,0.49746 -0.87891,0.68946 -0.256,-0.23466 -0.465,-0.48033 -0.625,-0.73633 -0.16,-0.26666 -0.24023,-0.53906 -0.24023,-0.81641 0,-0.33076 0.0921,-0.59819 0.27343,-0.80078 0.192,-0.21341 0.4575,-0.31836 0.79883,-0.31836 z m -0.83203,4.70313 2.56055,2.57617 c -0.224,0.19192 -0.50633,0.34547 -0.84766,0.46289 -0.33067,0.11742 -0.71997,0.17774 -1.16797,0.17773 -0.32,0 -0.5924,-0.0435 -0.8164,-0.1289 -0.224,-0.096 -0.41121,-0.21298 -0.56055,-0.35156 -0.13866,-0.14942 -0.23874,-0.30989 -0.30274,-0.48047 -0.064,-0.17069 -0.0976,-0.3361 -0.0976,-0.4961 0,-0.23458 0.0386,-0.44163 0.11328,-0.62304 0.0747,-0.18142 0.16977,-0.34189 0.28711,-0.48047 0.11734,-0.14942 0.24611,-0.27818 0.38476,-0.38477 0.14933,-0.10683 0.29793,-0.1969 0.44727,-0.27148 z m -2.04297,12.52734 -2.38476,0.38477 v 9.26367 c 0,0.448 0.0436,0.85414 0.1289,1.2168 0.096,0.352 0.26638,0.65611 0.51172,0.91211 0.256,0.24541 0.59677,0.43758 1.02344,0.57617 0.43733,0.13934 1.00393,0.21258 1.69726,0.22265 l 0.33594,-1.96679 c -0.28801,-0.0214 -0.51879,-0.07 -0.68945,-0.14453 -0.17067,-0.0746 -0.30244,-0.17165 -0.39844,-0.28907 -0.0853,-0.11741 -0.14378,-0.26105 -0.17578,-0.43164 -0.032,-0.17058 -0.0488,-0.36275 -0.0488,-0.57617 z m -9.59765,1.20117 c -0.52267,0 -1.08927,0.0267 -1.69727,0.0801 -0.608,0.0426 -1.16769,0.11103 -1.67969,0.20703 v 10.75196 c 0.65067,0.13858 1.27572,0.22386 1.87305,0.25586 0.608,0.0426 1.21622,0.0645 1.82422,0.0645 1.67467,0 2.93272,-0.29225 3.77539,-0.87891 0.85333,-0.58666 1.2793,-1.46231 1.2793,-2.625 -10e-6,-0.576 -0.12682,-1.09407 -0.38282,-1.55273 -0.256,-0.45866 -0.7374,-0.82121 -1.4414,-1.08789 0.85333,-0.512 1.28125,-1.21039 1.28125,-2.09571 0,-0.58668 -0.1238,-1.07604 -0.36914,-1.4707 -0.23467,-0.40524 -0.56553,-0.73114 -0.99219,-0.97656 -0.42667,-0.24534 -0.93782,-0.41572 -1.53516,-0.51172 -0.58666,-0.10658 -1.23154,-0.16016 -1.93554,-0.16016 z m 0.40039,2.01563 c 0.66133,0 1.16257,0.0901 1.5039,0.27148 0.34134,0.18134 0.51172,0.49732 0.51172,0.94532 0,0.43741 -0.16543,0.7564 -0.49609,0.95898 -0.33067,0.192 -0.88044,0.28906 -1.64844,0.28906 h -1.21484 v -2.41992 c 0.19199,-0.0202 0.40895,-0.0293 0.65429,-0.0293 0.24533,-0.0101 0.47611,-0.0156 0.68946,-0.0156 z m 15.61914,0.56055 c -0.59734,0 -1.15207,0.10689 -1.66407,0.32031 -0.50133,0.21334 -0.93721,0.51053 -1.31054,0.89453 -0.36266,0.384 -0.6519,0.84858 -0.86524,1.39258 -0.20266,0.544 -0.30273,1.14727 -0.30273,1.80859 0,0.66134 0.10007,1.26956 0.30273,1.82422 0.20267,0.544 0.48499,1.01157 0.84766,1.40625 0.36266,0.3839 0.79554,0.68307 1.29687,0.89648 0.512,0.21342 1.07665,0.32032 1.69532,0.32032 0.62933,0 1.19593,-0.1069 1.69726,-0.32032 0.512,-0.21331 0.94788,-0.51248 1.31055,-0.89648 0.36266,-0.39468 0.64003,-0.86225 0.83203,-1.40625 0.192,-0.55466 0.28906,-1.16288 0.28906,-1.82422 0,-0.66132 -0.10203,-1.26459 -0.30469,-1.80859 -0.20266,-0.544 -0.48499,-1.00858 -0.84765,-1.39258 -0.36267,-0.38393 -0.8005,-0.68111 -1.3125,-0.89453 -0.50134,-0.21342 -1.05606,-0.32031 -1.66406,-0.32031 z m 9.86328,0.0312 c -0.672,0 -1.27526,0.1021 -1.8086,0.30468 -0.53333,0.192 -0.98604,0.46935 -1.35937,0.83203 -0.36267,0.36266 -0.64003,0.8005 -0.83203,1.3125 -0.192,0.50135 -0.28711,1.06103 -0.28711,1.67969 0,1.23734 0.30907,2.20317 0.92773,2.89649 0.61867,0.68268 1.50921,1.02343 2.67188,1.02343 0.32,0 0.61224,-0.0267 0.8789,-0.0801 0.27734,-0.064 0.54478,-0.15407 0.80079,-0.27149 v 0.30274 c 0,0.46931 -0.14365,0.85366 -0.43165,1.15234 -0.27733,0.29866 -0.75874,0.44727 -1.4414,0.44727 -0.52267,0 -0.99025,-0.0415 -1.40625,-0.12696 -0.40534,-0.0852 -0.79464,-0.20214 -1.16797,-0.35156 l -0.41602,2 c 0.43734,0.14916 0.91183,0.26614 1.42383,0.35156 0.512,0.096 1.02316,0.14258 1.53516,0.14258 1.46133,0 2.53909,-0.33581 3.23242,-1.00781 0.704,-0.66134 1.05664,-1.67869 1.05664,-3.05469 v -7.07227 c -0.21333,-0.064 -0.45899,-0.12236 -0.73633,-0.17578 -0.26666,-0.064 -0.54899,-0.11757 -0.84765,-0.16015 -0.29867,-0.0438 -0.60278,-0.0755 -0.91211,-0.0957 -0.29867,-0.032 -0.59286,-0.0488 -0.88086,-0.0488 z m 0.0156,1.92187 c 0.21334,0 0.40055,0.009 0.56055,0.0293 0.15999,0.0118 0.29867,0.0287 0.41602,0.0488 v 3.80859 c -0.14933,0.0854 -0.33159,0.15866 -0.54493,0.22266 -0.21332,0.064 -0.44216,0.0976 -0.6875,0.0976 -1.07733,0 -1.61523,-0.66666 -1.61523,-2 0,-0.64 0.15356,-1.16798 0.46289,-1.58398 0.30933,-0.416 0.77887,-0.62305 1.4082,-0.62305 z m -9.8789,0.0937 c 0.544,0 0.96004,0.21397 1.24804,0.64063 0.29867,0.416 0.44922,0.99251 0.44922,1.72851 0,0.736 -0.15055,1.32243 -0.44922,1.75977 -0.288,0.42666 -0.70404,0.63867 -1.24804,0.63867 -0.544,0 -0.96501,-0.21201 -1.26368,-0.63867 -0.29866,-0.43734 -0.44726,-1.02377 -0.44726,-1.75977 0,-0.736 0.1486,-1.31251 0.44726,-1.72851 0.29867,-0.42666 0.71968,-0.64063 1.26368,-0.64063 z m -16.96289,1.75977 h 1.5664 c 0.71467,0 1.26444,0.11193 1.64844,0.33593 0.384,0.21332 0.57617,0.57589 0.57617,1.08789 0,0.57593 -0.22883,0.97018 -0.6875,1.1836 -0.45867,0.21342 -1.06193,0.32031 -1.80859,0.32031 -0.25599,0 -0.48979,-0.006 -0.70313,-0.0156 -0.21332,-0.0118 -0.41045,-0.0267 -0.59179,-0.0469 z"
       transform="scale(0.26458333)"
       id="path101"
       inkscape:connector-curvature="0" />
  </g>
</svg>
